<svg width="22" height="22" viewBox="0 0 22 22" fill="none" xmlns="http://www.w3.org/2000/svg">
<path d="M1.83569 16.2586C1.92147 15.8689 1.88873 15.4625 1.74169 15.0916C0.71846 12.9686 0.477947 10.5524 1.06258 8.26927C1.64722 5.9862 3.01944 3.98296 4.93713 2.61302C6.85482 1.24307 9.19474 0.59445 11.5441 0.78159C13.8934 0.968731 16.1011 1.97961 17.7777 3.63587C19.4544 5.29213 20.4921 7.48733 20.708 9.83417C20.9238 12.181 20.3038 14.5287 18.9574 16.4629C17.6109 18.3972 15.6246 19.7938 13.3488 20.4063C11.073 21.0187 8.65407 20.8078 6.51868 19.8106C6.16821 19.6775 5.7874 19.6456 5.41969 19.7186L2.00669 20.7165C1.84205 20.7602 1.66898 20.7611 1.50389 20.7192C1.3388 20.6772 1.18716 20.5938 1.06336 20.4768C0.939553 20.3598 0.847686 20.2131 0.796467 20.0507C0.745248 19.8882 0.736375 19.7154 0.770691 19.5486L1.83569 16.2586Z" stroke="#F7F1E5" stroke-width="1.5" stroke-linecap="round" stroke-linejoin="round"/>
<path d="M11.7881 13.5519C11.9052 13.6066 12.037 13.619 12.162 13.5873C12.2869 13.5556 12.3975 13.4815 12.4755 13.3773L12.6767 13.1093C12.7822 12.9662 12.9191 12.85 13.0765 12.77C13.2339 12.69 13.4074 12.6483 13.5833 12.6483H15.2833C15.5839 12.6483 15.8722 12.7697 16.0847 12.9859C16.2973 13.202 16.4167 13.4952 16.4167 13.8008V15.5297C16.4167 15.8353 16.2973 16.1285 16.0847 16.3446C15.8722 16.5608 15.5839 16.6822 15.2833 16.6822C12.5781 16.6822 9.98372 15.5893 8.07084 13.6441C6.15797 11.6988 5.08333 9.06038 5.08333 6.30932C5.08333 6.00365 5.20274 5.71049 5.41528 5.49435C5.62782 5.27821 5.91609 5.15678 6.21667 5.15678H7.91667C8.21725 5.15678 8.50551 5.27821 8.71805 5.49435C8.9306 5.71049 9.05 6.00365 9.05 6.30932V8.03814C9.05 8.21706 9.00904 8.39353 8.93035 8.55357C8.85167 8.7136 8.73742 8.85281 8.59667 8.96017L8.33147 9.16244C8.22744 9.24322 8.15411 9.35813 8.12395 9.48766C8.09379 9.61718 8.10864 9.75333 8.166 9.87298C8.94045 11.4726 10.2142 12.7663 11.7881 13.5519Z" stroke="#F7F1E5" stroke-width="1.5" stroke-linecap="round" stroke-linejoin="round"/>
</svg>
